<svg fill="white"  xmlns="http://www.w3.org/2000/svg"  viewBox="0 0 72 72" width="64px" height="64px"><path d="M 57.894531 9.4980469 C 55.210531 9.4980469 52.382969 11.441297 52.167969 15.154297 C 52.088969 16.533297 53.141531 17.715922 54.519531 17.794922 C 55.925531 17.874922 56.813578 16.867297 57.017578 15.529297 C 57.138578 14.736297 57.583531 14.498047 57.894531 14.498047 C 58.144531 14.498047 58.371109 14.550031 58.537109 14.707031 C 58.791109 14.947031 58.865891 15.201844 58.837891 15.589844 C 58.790891 16.231844 58.49075 16.591578 57.71875 17.517578 C 56.80675 18.611578 55.557688 20.109906 55.179688 22.628906 C 54.975687 23.993906 55.954313 25.283281 57.320312 25.488281 C 58.927312 25.648281 59.936047 24.609141 60.123047 23.369141 C 60.293047 22.235141 60.824594 21.59975 61.558594 20.71875 C 62.479594 19.61475 63.741672 18.102625 63.763672 15.640625 C 63.778672 13.916625 63.159484 12.3345 62.021484 11.1875 C 60.943484 10.0995 59.479531 9.4990469 57.894531 9.4980469 z M 34.863281 18.599609 C 33.132516 18.599609 31.730945 19.936084 31.591797 21.630859 C 27.965408 22.786562 24.640558 25.790219 22.533203 29.955078 C 17.295189 29.758083 14.883798 28.943322 13.457031 28.378906 C 12.441031 27.977906 11.4825 27.599609 10.3125 27.599609 C 8.1685 27.599609 5.6640625 29.258547 5.6640625 33.935547 C 5.6640625 40.563547 10.699828 46.228766 18.548828 49.384766 L 18.556641 49.363281 C 20.703195 51.710342 23.771441 53.693676 27.976562 54.726562 C 27.416984 55.176393 26.771697 55.571495 26 56 C 23.75 57.25 24.499156 60 26.535156 60 L 43.191406 60 C 45.500406 60 46.25 57.25 44 56 C 43.267972 55.593418 42.602721 55.206555 42.001953 54.78125 C 51.586842 52.796959 59.079442 46.655285 64.767578 36.154297 C 65.697578 34.437297 67.100422 31.844891 65.607422 29.337891 C 64.973422 28.271891 63.658 27 61 27 L 58.75 27 C 57.432 27 56.250859 27.453344 54.755859 28.027344 C 52.89637 28.741278 50.440544 29.677076 47.179688 29.929688 C 45.07258 25.779631 41.754218 22.787364 38.136719 21.632812 C 37.998497 19.937111 36.594708 18.599609 34.863281 18.599609 z M 34.863281 27.099609 C 36.808544 27.099609 38.635048 28.335224 40.064453 30 L 29.662109 30 C 31.091219 28.335224 32.918018 27.099609 34.863281 27.099609 z M 12.125 34.365234 C 12.206687 34.347641 12.296016 34.351359 12.384766 34.380859 C 13.160391 34.638004 14.183888 34.910893 15.435547 35.160156 C 14.833803 36.428817 14.5 37.885546 14.5 39.5 C 14.5 39.592442 14.513385 39.691457 14.515625 39.785156 C 13.099489 38.461055 12.016796 36.826955 11.736328 34.935547 C 11.695078 34.658047 11.879938 34.418016 12.125 34.365234 z M 56.013672 35.84375 C 56.213672 35.84375 56.313078 35.892047 56.330078 35.998047 C 56.351078 36.131047 56.242109 36.353734 56.037109 36.677734 C 51.534109 43.786734 44.414234 47.5 34.990234 47.5 C 25.794234 47.5 22.5 42.267 22.5 39.5 C 22.5 38.629 22.5 37.5 24.5 37.5 L 24.5 37.498047 L 43.310547 37.498047 C 45.745547 37.498047 50.155266 37.211813 53.447266 36.382812 C 54.009266 36.241812 55.023547 35.869141 55.310547 35.869141 L 56.013672 35.84375 z"/></svg>